<?xml version="1.0" encoding="UTF-8" standalone="no"?>
<!-- Created with Inkscape (http://www.inkscape.org/) -->

<svg
   width="512"
   height="512"
   viewBox="0 0 135.46666 135.46667"
   version="1.1"
   id="svg1164"
   inkscape:version="1.1.2 (0a00cf5339, 2022-02-04)"
   sodipodi:docname="favicon.svg"
   inkscape:export-filename="/home/thecodrr/Sources/Repos/doctave/logo.png"
   inkscape:export-xdpi="289.98001"
   inkscape:export-ydpi="289.98001"
   xmlns:inkscape="http://www.inkscape.org/namespaces/inkscape"
   xmlns:sodipodi="http://sodipodi.sourceforge.net/DTD/sodipodi-0.dtd"
   xmlns="http://www.w3.org/2000/svg"
   xmlns:svg="http://www.w3.org/2000/svg">
  <sodipodi:namedview
     id="namedview1166"
     pagecolor="#ffffff"
     bordercolor="#cccccc"
     borderopacity="1"
     inkscape:pageshadow="0"
     inkscape:pageopacity="0"
     inkscape:pagecheckerboard="0"
     inkscape:document-units="mm"
     showgrid="false"
     inkscape:zoom="0.87303676"
     inkscape:cx="167.80508"
     inkscape:cy="320.14689"
     inkscape:window-width="1920"
     inkscape:window-height="999"
     inkscape:window-x="0"
     inkscape:window-y="0"
     inkscape:window-maximized="1"
     inkscape:current-layer="g9197"
     units="px"
     width="512px" />
  <defs
     id="defs1161">
    <inkscape:path-effect
       effect="fill_between_many"
       method="originald"
       linkedpaths="#g4929,0,1|"
       id="path-effect9199"
       join="true"
       close="true"
       autoreverse="true" />
    <inkscape:path-effect
       effect="fill_between_many"
       method="originald"
       linkedpaths="#g4929,0,1|"
       id="path-effect9203"
       join="true"
       close="true"
       autoreverse="true" />
    <inkscape:path-effect
       effect="fill_between_many"
       method="originald"
       linkedpaths="#g4929,0,1|"
       id="path-effect9207"
       join="true"
       close="true"
       autoreverse="true" />
  </defs>
  <g
     inkscape:label="Layer 1"
     inkscape:groupmode="layer"
     id="layer1">
    <text
       xml:space="preserve"
       style="font-size:10.5833px;line-height:1.25;font-family:'Open Sans';-inkscape-font-specification:'Open Sans';fill:#000000;stroke-width:0.264583"
       x="53.834888"
       y="57.025852"
       id="text25383"><tspan
         sodipodi:role="line"
         id="tspan25381"
         style="stroke-width:0.264583"
         x="53.834888"
         y="57.025852" /></text>
    <g
       id="g13035"
       transform="translate(7.3776905,0.36382007)">
      <path
         inkscape:original-d="M 4.9603168,4.1433017"
         inkscape:path-effect="#path-effect9199"
         d="M 4.9603168,4.1433017"
         id="path9201"
         style="stroke-width:0.932524" />
      <path
         inkscape:original-d="M 4.9603168,4.1433017"
         inkscape:path-effect="#path-effect9203"
         d="M 4.9603168,4.1433017"
         id="path9205"
         style="stroke-width:0.932524" />
      <path
         inkscape:original-d="M 4.9603168,4.1433017"
         inkscape:path-effect="#path-effect9207"
         d="M 4.9603168,4.1433017"
         id="path9209"
         style="stroke-width:0.932524" />
      <g
         id="g4929"
         transform="matrix(-0.00508018,-0.98529033,1.0306335,-0.00531397,-67.066434,81.712463)"
         style="fill:#000000;fill-opacity:1;stroke:#000000;stroke-width:0.0925378;stroke-miterlimit:4;stroke-dasharray:none;stroke-opacity:0.99794">
        <g
           id="g9197"
           transform="translate(-38.668516,159.13197)"
           style="fill:#000000;fill-opacity:1;stroke:#000000;stroke-opacity:0.99794">
          <g
             id="g1346"
             transform="translate(21.568921,88.237323)">
            <g
               id="g1078"
               transform="translate(-12.99227,-172.57167)">
              <path
                 style="fill:#000000;fill-opacity:1;stroke:#000000;stroke-width:12.9553;stroke-miterlimit:4;stroke-dasharray:none;stroke-opacity:0.99794"
                 d="m 85.35083,33.632805 c 6.299062,-0.232893 1.134765,-7.237196 -2.07556,-3.153813 -1.092811,1.599043 -0.170434,6.567799 2.07556,3.153813 z"
                 id="path3704-7" />
              <path
                 style="fill:#000000;fill-opacity:1;stroke:#000000;stroke-width:12.9553;stroke-miterlimit:4;stroke-dasharray:none;stroke-opacity:0.99794"
                 d="m -3.13511,33.596875 c 6.8186573,-4.572983 -7.30966,-5.443816 -6.1199544,1.347036 0.7153307,4.400354 4.1843786,-1.205576 6.1199544,-1.347036 z"
                 id="path3702-5" />
              <path
                 style="fill:#000000;fill-opacity:1;stroke:#000000;stroke-width:12.9553;stroke-miterlimit:4;stroke-dasharray:none;stroke-opacity:0.99794"
                 d="m 85.44439,40.692134 c 5.225314,0.306151 7.687649,-10.776423 1.159649,-5.231933 -3.126742,0.431907 -6.358641,9.478723 -1.159649,5.231933 z"
                 id="path3700-3" />
              <path
                 style="fill:#000000;fill-opacity:1;stroke:#000000;stroke-width:12.9553;stroke-miterlimit:4;stroke-dasharray:none;stroke-opacity:0.99794"
                 d="m -7.584072,42.703942 c 1.9508511,-1.738563 10.4156959,-5.700578 5.1106046,-7.273618 -3.4261033,0.135914 -10.1151966,8.309305 -5.1152544,7.279544 z"
                 id="path3698-5" />
              <path
                 style="fill:#000000;fill-opacity:1;stroke:#000000;stroke-width:12.9553;stroke-miterlimit:4;stroke-dasharray:none;stroke-opacity:0.99794"
                 d="m 97.11792,47.166613 c 3.08648,-2.638159 -1.252763,-13.547725 -3.619265,-7.135353 0.228273,2.559574 -1.753654,11.058089 3.619265,7.135353 z"
                 id="path3696-6" />
              <path
                 style="fill:#000000;fill-opacity:1;stroke:#000000;stroke-width:12.9553;stroke-miterlimit:4;stroke-dasharray:none;stroke-opacity:0.99794"
                 d="m 88.26592,44.828557 c 4.434078,0.267116 2.865424,-8.642462 -0.51727,-3.627986 -4.531863,-0.657451 -7.473615,11.359106 -1.90741,5.403715 0.812582,-0.582306 1.360701,-1.594246 2.42468,-1.775729 z"
                 id="path3694-2" />
              <path
                 style="fill:#000000;fill-opacity:1;stroke:#000000;stroke-width:12.9553;stroke-miterlimit:4;stroke-dasharray:none;stroke-opacity:0.99794"
                 d="m -13.001753,48.240349 c 2.5499,-2.824629 1.8564,-15.01255 -3.280176,-9.318796 0.429621,2.730277 -1.835058,10.59449 3.280176,9.318796 z"
                 id="path3692-9" />
              <path
                 style="fill:#000000;fill-opacity:1;stroke:#000000;stroke-width:12.9553;stroke-miterlimit:4;stroke-dasharray:none;stroke-opacity:0.99794"
                 d="m -8.22455,48.617107 c 1.8953072,-2.298433 9.3092729,-3.936865 6.691192,-7.541322 -1.6691888,2.121147 -10.671695,4.055312 -6.691192,7.541322 z"
                 id="path3690-1" />
              <path
                 style="fill:#000000;fill-opacity:1;stroke:#000000;stroke-width:12.9553;stroke-miterlimit:4;stroke-dasharray:none;stroke-opacity:0.99794"
                 d="m 102.76062,50.424092 c 0.46102,-5.436398 3.27697,-11.184755 0.7997,-16.481246 -5.399622,-5.666098 -5.647697,6.244718 -3.897764,9.580038 1.090114,1.434221 -0.955561,11.589956 3.098064,6.901208 z"
                 id="path3688-2" />
              <path
                 style="fill:#000000;fill-opacity:1;stroke:#000000;stroke-width:12.9553;stroke-miterlimit:4;stroke-dasharray:none;stroke-opacity:0.99794"
                 d="m 86.91428,55.566968 c 4.721542,-0.436952 5.654537,-13.359461 0.12227,-7.546505 -4.543586,-1.456865 -6.768184,9.626848 -1.53658,4.413587 2.464948,-2.712307 5.182616,0.447136 1.29346,1.389498 -2.798347,1.106767 -3.91603,3.409855 0.12085,1.74342 z"
                 id="path3686-7" />
              <path
                 style="fill:#000000;fill-opacity:1;stroke:#000000;stroke-width:12.9553;stroke-miterlimit:4;stroke-dasharray:none;stroke-opacity:0.99794"
                 d="m -6.976031,53.935032 c 5.5619205,-0.238508 9.6552243,-11.120398 1.7309551,-5.40722 -2.0211484,1.007791 -6.9227751,4.644027 -1.7309551,5.40722 z"
                 id="path3684-0" />
              <path
                 style="fill:#000000;fill-opacity:1;stroke:#000000;stroke-width:12.9553;stroke-miterlimit:4;stroke-dasharray:none;stroke-opacity:0.99794"
                 d="M 47.281129,23.14243 C 40.387565,20.231285 59.624102,19.549035 52.882325,23.630563 50.992733,23.792147 49.16847,23.04453 47.281129,23.14243 Z"
                 id="path3682-9" />
              <path
                 style="fill:#000000;fill-opacity:1;stroke:#000000;stroke-width:12.9553;stroke-miterlimit:4;stroke-dasharray:none;stroke-opacity:0.99794"
                 d="M 68.95712,31.668092 C 62.063551,28.75695 81.300085,28.074696 74.558312,32.156225 72.668721,32.317809 70.84446,31.570193 68.95712,31.668092 Z"
                 id="path3682-3-3" />
              <path
                 style="fill:#000000;fill-opacity:1;stroke:#000000;stroke-width:12.9553;stroke-miterlimit:4;stroke-dasharray:none;stroke-opacity:0.99794"
                 d="m 9.429911,23.16438 c 4.812042,-5.007057 12.75903,-0.223979 18.849512,-2.171298 2.31013,-0.32954 11.058824,-0.433798 8.611273,2.347718 -7.429255,1.640499 -15.087806,-0.481141 -22.629919,0.195337 -1.614204,-0.0604 -3.228018,-0.166893 -4.830866,-0.371757 z"
                 id="path3680-6" />
              <path
                 style="fill:#000000;fill-opacity:1;stroke:#000000;stroke-width:12.9553;stroke-miterlimit:4;stroke-dasharray:none;stroke-opacity:0.99794"
                 d="m 57.249486,31.51181 c -3.232982,1.560701 -7.988569,-3.26058 -1.941846,-2.655129 2.709262,-1.421152 11.625225,2.220376 4.557091,2.852105 -0.871667,-0.06674 -1.74354,-0.131034 -2.615245,-0.196976 z"
                 id="path3678-0" />
              <path
                 style="fill:#000000;fill-opacity:1;stroke:#000000;stroke-width:12.9553;stroke-miterlimit:4;stroke-dasharray:none;stroke-opacity:0.99794"
                 d="m 7.754662,31.012697 c 5.489321,-3.541929 12.364167,-1.74396 18.488923,-2.680672 6.666358,-0.134563 13.367225,-0.153609 19.985084,0.768905 -2.880492,5.931644 -11.29296,0.533836 -16.495326,2.286495 -7.252084,-0.07458 -14.505253,-0.0019 -21.756809,-0.13468 l -0.2162748,-0.233979 -0.00568,-0.0061 z"
                 id="path3676-6" />
              <path
                 style="fill:#000000;fill-opacity:1;stroke:#000000;stroke-width:12.9553;stroke-miterlimit:4;stroke-dasharray:none;stroke-opacity:0.99794"
                 d="m 12.898277,40.455229 c -7.2968515,-1.08504 3.761026,-4.769713 5.953369,-1.824937 3.053507,2.166146 -5.538133,2.448847 -5.953369,1.824937 z"
                 id="path3674-2" />
              <path
                 style="fill:#000000;fill-opacity:1;stroke:#000000;stroke-width:12.9553;stroke-miterlimit:4;stroke-dasharray:none;stroke-opacity:0.99794"
                 d="m 66.346593,41.779325 c -2.755094,-5.884303 12.36403,-0.349405 3.587707,0.350052 -1.202326,-0.0037 -2.414677,-0.0656 -3.587707,-0.350052 z"
                 id="path3672-6" />
              <path
                 style="fill:#000000;fill-opacity:1;stroke:#000000;stroke-width:12.9553;stroke-miterlimit:4;stroke-dasharray:none;stroke-opacity:0.99794"
                 d="m 48.545329,41.724535 c -2.571496,1.392802 -10.464435,-2.650579 -3.779073,-2.645728 4.269598,0.179922 12.9845,-2.375889 13.963024,2.250614 -3.218882,1.532845 -6.809605,0.237321 -10.183951,0.395114 z"
                 id="path3670-1" />
              <path
                 style="fill:#000000;fill-opacity:1;stroke:#000000;stroke-width:12.9553;stroke-miterlimit:4;stroke-dasharray:none;stroke-opacity:0.99794"
                 d="m 67.080033,23.939645 c -2.571496,1.392802 -10.464435,-2.650579 -3.779073,-2.645728 4.269599,0.179922 12.984505,-2.375889 13.963027,2.250614 -3.218883,1.532844 -6.809607,0.237322 -10.183954,0.395114 z"
                 id="path3670-6-8" />
              <path
                 style="fill:#000000;fill-opacity:1;stroke:#000000;stroke-width:12.9553;stroke-miterlimit:4;stroke-dasharray:none;stroke-opacity:0.99794"
                 d="m 29.388666,41.286885 c -3.22368,1.406036 -8.198182,-3.448813 -2.108524,-2.878497 2.502752,-1.39999 10.707223,2.300713 4.327489,3.134345 l -1.109315,-0.129392 -1.10965,-0.126449 z"
                 id="path3668-7" />
              <path
                 style="fill:#000000;fill-opacity:1;stroke:#000000;stroke-width:12.9553;stroke-miterlimit:4;stroke-dasharray:none;stroke-opacity:0.99794"
                 d="m 63.420593,49.095223 c -2.002808,-5.720081 14.931384,-1.515154 6.013295,0.127989 -2.004534,0.09214 -4.013525,0.02578 -6.013295,-0.127989 z"
                 id="path3666-9" />
              <path
                 style="fill:#000000;fill-opacity:1;stroke:#000000;stroke-width:12.9553;stroke-miterlimit:4;stroke-dasharray:none;stroke-opacity:0.99794"
                 d="m 43.772399,48.949726 c -2.365811,1.50535 -9.401835,-2.874836 -3.387629,-2.57235 4.673507,1.024949 14.374964,-2.041398 15.772769,2.428906 -3.868755,2.208722 -8.301414,-0.517401 -12.38514,0.143444 z"
                 id="path3664-2" />
              <path
                 style="fill:#000000;fill-opacity:1;stroke:#000000;stroke-width:12.9553;stroke-miterlimit:4;stroke-dasharray:none;stroke-opacity:0.99794"
                 d="m 19.812858,48.770835 c -2.34567,0.875828 -12.5081418,-0.936236 -5.539349,-2.281951 4.747654,0.398279 14.883662,-2.945594 16.150937,2.139213 -3.375667,1.681528 -7.108557,-0.607838 -10.611588,0.142738 z"
                 id="path3662-0" />
              <path
                 style="fill:#000000;fill-opacity:1;stroke:#000000;stroke-width:12.9553;stroke-miterlimit:4;stroke-dasharray:none;stroke-opacity:0.99794"
                 d="m -1.971495,55.601525 c 4.7713443,-1.887382 -1.5667599,-4.589222 -2.9365202,-0.958926 -3.1366798,1.796494 2.1769367,1.088411 2.9365202,0.958926 z"
                 id="path3658-2" />
              <path
                 style="fill:#000000;fill-opacity:1;stroke:#000000;stroke-width:12.9553;stroke-miterlimit:4;stroke-dasharray:none;stroke-opacity:0.99794"
                 d="M 50.050641,95.686278 C 67.142655,92.445184 80.009494,76.771633 82.55363,59.959827 58.502478,59.18292 34.477184,57.396977 10.41561,57.184699 3.1236488,56.358104 2.2636285,63.115636 6.5662513,67.276704 12.663693,79.97423 22.643856,92.716264 37.19795,95.597446 c 4.229726,0.735121 8.615362,0.793292 12.852691,0.08883 z"
                 id="path3656-3"
                 sodipodi:nodetypes="ccccccc" />
            </g>
            <path
               style="fill:#000000;stroke:none;stroke-width:0;stroke-miterlimit:4;stroke-dasharray:none;stroke-opacity:0.99794"
               id="path1194"
               d="m 52.313886,-124.07808 c -5.28376,-0.8768 -2.171609,5.82753 1.041081,3.18478 3.790707,-0.0162 7.744105,-3.1692 3.30839,-4.50388 -3.92881,-0.30133 -3.843455,5.25232 -1.437891,7.23199 1.650626,0.60222 -0.231596,-5.27229 3.357934,-3.9217 2.607637,-2.36258 -3.388699,-4.98009 -5.534117,-2.49022 -3.726905,-0.0142 -4.927926,3.02212 -1.698944,4.55597 4.61949,-0.44653 1.963479,-1.57283 0.963547,-4.05694 z" />
            <path
               style="fill:#000000;stroke:none;stroke-width:0;stroke-miterlimit:4;stroke-dasharray:none;stroke-opacity:0.99794"
               id="path1229"
               d="m 59.019546,-132.29455 c 0.531896,-4.98794 9.062585,-1.45251 8.003051,-2.8891 -1.403468,-2.94169 -1.077787,-2.78334 -1.151974,0.0181 -4.399534,2.03503 -9.834558,-4.97161 -11.677471,2.32693 -3.306091,0.29379 -1.637564,1.50995 0.251023,3.00693 3.019066,-3.33273 6.364213,-7.61863 1.697465,-11.43263 0.472078,0.33646 1.207511,3.96378 2.959782,1.5929 2.949492,0.77488 -0.83761,-5.43843 -2.995728,-2.52317 -5.999746,-0.69769 -1.035836,6.4468 2.687732,3.67108 4.431566,-1.49202 11.461986,-3.22164 14.322567,-4.90977 -1.185658,-4.62732 -2.60791,1.85112 -6.26286,1.08135 -2.572761,1.59567 -11.974833,-0.47533 -6.803959,4.28009 1.580632,2.49786 1.667103,0.54596 0.385933,-0.22351 2.458142,6.88879 -4.578105,13.32886 -10.640095,14.72805 1.329644,2.2455 1.561801,4.55142 3.351202,1.4394 3.920382,0.13129 6.789149,-2.71255 2.685578,-5.5216 -2.263323,-1.00086 -4.765956,-3.82826 -2.112947,-0.0792 2.717482,1.88065 11.171061,-5.02183 5.725605,-7.87815 -2.006667,1.63595 -0.1759,6.16085 1.240431,5.51446 2.487087,-2.97749 -1.565999,-7.85377 -3.316827,-2.95716 -2.323235,2.57532 -8.070715,2.35133 -3.625906,6.50111 3.314011,3.24239 3.873904,1.28636 2.002485,-0.11278 -3.51441,0.33535 -9.298552,3.03435 -4.287125,6.46184 5.522868,-1.91952 11.855726,-6.8493 11.62612,-13.33033 0.44664,-3.16039 -6.135258,-10.8495 -2.94655,-4.10271 4.559922,-1.40814 11.37064,-0.29252 14.086379,-4.82203 -1.355625,-7.70042 -9.412087,-0.73778 -13.842762,-0.17015 -2.382885,1.88402 -10.391457,-0.76837 -5.798879,3.7533 2.039972,1.16049 8.489147,-0.48772 4.77246,-4.16919 -4.626298,-1.12961 -4.234266,3.28277 -1.540913,5.62205 -2.048181,-3.1096 -0.710266,-2.88903 -1.886719,0.049 -2.812588,1.92543 -5.889919,7.2049 -1.289649,8.46972 3.095309,-0.93357 3.517849,-6.65048 7.422362,-3.15966 5.07648,2.75759 8.809122,-2.29333 3.569745,-5.6726 -2.436637,-2.22489 -10.496057,0.0396 -7.925204,3.60529 0.438544,0.61072 0.877133,1.22142 1.315648,1.83215 z" />
            <path
               style="fill:#000000;stroke:none;stroke-width:0;stroke-miterlimit:4;stroke-dasharray:none;stroke-opacity:0.99794"
               id="path1231"
               d="m 43.792732,-139.35072 c 3.383687,-1.51243 11.00849,-5.41907 4.99629,-8.3669 -3.174339,-1.32942 -6.889554,0.88774 -6.577346,3.77885 -1.631168,-2.03616 -6.374132,-7.4274 -6.032042,-7.1467 2.738164,6.78877 -0.626222,-9.60629 -2.672505,-2.26622 -0.329506,6.51828 9.602424,2.76723 4.659339,-1.78129 -6.289137,1.78994 -11.516275,6.58734 -16.4215,10.8132 -1.930246,4.19035 -8.897525,6.18418 -9.80534,9.60123 1.806447,5.06082 11.846312,1.04671 5.708256,-2.14926 -3.342894,-0.76922 1.212029,6.0043 2.308751,2.92152 -1.379054,-4.78608 -4.490947,-0.91413 -7.804606,-2.06013 2.046607,7.66924 8.67234,-2.78124 11.588966,-5.18597 4.622753,-4.0286 9.862018,-9.33207 15.910925,-10.17711 -1.354599,-2.89852 -2.214711,-4.09327 -4.658351,-1.5014 -1.904319,-1.49381 1.41316,5.3518 1.93892,0.83935 1.107287,-2.7998 -3.899559,-5.98951 -2.423723,-1.17857 1.720129,5.03109 5.871148,8.66502 9.190548,12.62004 1.449725,-1.04806 1.805644,-5.89535 5.763526,-3.86359 4.011975,2.59208 -0.493207,-5.44938 -1.734029,-1.57257 -2.563629,2.21647 -7.675372,2.7424 -4.096092,6.38497 l 0.153884,0.279 0.0061,0.0111 z" />
            <path
               style="fill:#000000;stroke:none;stroke-width:0;stroke-miterlimit:4;stroke-dasharray:none;stroke-opacity:0.99794"
               id="path1233"
               d="m -13.786071,-138.9611 c 4.975623,-4.40713 -4.021769,-6.58641 -7.268834,-4.115 -3.326337,2.5534 5.01159,6.09233 7.982604,6.6985 3.0774136,1.29642 6.2666796,0.0202 3.1036864,-3.02869 -1.3297434,-2.18585 -9.0974094,-4.07477 -8.3228744,-3.78075 1.017952,4.59155 6.926627,3.17065 9.7851484,5.71602 -1.3449059,-5.54412 -9.0990074,-1.73622 -12.3306284,-6.17744 0.900639,5.3134 7.266263,1.73573 9.71128,6.44662 2.1798225,1.73052 7.4840234,7.92061 6.8320814,7.25798 -2.0735485,-5.22972 -0.977873,8.54025 -3.6884388,6.31213 3.0594184,5.0868 -1.5233719,-4.37461 -0.7696936,-6.02472 0.6215575,-1.95982 -3.131266,-6.72248 -1.332731,-1.75018 0.8855875,3.55671 -1.569607,8.23972 2.3451523,10.44548 -1.1234593,-4.13844 1.8911694,-12.36295 -2.5571013,-13.6374 1.013073,3.67321 -1.95641,8.16506 1.1105507,11.0766 1.647004,1.30941 0.7993326,-6.29157 1.2993201,-8.35917 -1.1466348,-2.98743 -2.9961878,-5.45744 -2.2350508,-0.66396 -0.250161,3.53574 -0.04917,11.4526 2.4284329,11.64284 -0.090337,-4.31399 0.6842035,-12.65556 -3.4779919,-13.65568 0.423168,4.41728 1.5761011,13.75048 6.0815154,14.27038 3.5790729,-5.85593 1.6567495,-12.48404 -3.7183749,-16.4662 -2.6372185,-2.60691 -9.6072985,-10.50644 -11.9005285,-5.90696 1.560532,4.50956 8.153355,5.77083 12.2602924,5.36738 0.4411909,-4.70014 -8.8033244,-6.70236 -9.9976674,-5.81393 -0.313788,4.30818 9.1049571,5.77284 8.6309556,5.30628 -1.7652196,-2.08598 -1.0070506,-3.0703 -1.5935046,-1.58625 -3.067061,0.95595 -9.083033,-3.48055 -9.786747,-2.59004 0.705793,5.06014 4.617992,0.0445 8.380198,1.55703 -0.795745,-3.34457 -3.200758,-3.81206 -2.314846,-0.74523 0.447847,0.73451 0.896383,1.47126 1.343795,2.20436 z" />
          </g>
        </g>
      </g>
      <g
         id="g4957"
         transform="matrix(-0.00508018,-0.98529033,1.0306335,-0.00531397,22.047434,141.78895)"
         style="fill:#ffffff;fill-opacity:1">
        <path
           style="fill:#ffffff;fill-opacity:1;stroke-width:0.272252"
           d="m 116.69705,22.268124 c 6.24019,-1.252765 2.64259,-5.775101 -1.52395,-3.846889 -1.77189,1.298374 -1.11812,7.626057 1.52395,3.846889 z"
           id="path3704" />
        <path
           style="fill:#ffffff;fill-opacity:1;stroke-width:0.272252"
           d="m 28.21111,22.232194 c 6.365187,-2.206585 -2.383071,-6.712501 -4.372099,-1.821917 -3.239188,2.37682 -1.584994,7.397544 1.773686,3.298189 0.835394,-0.543703 1.702301,-1.039547 2.598413,-1.476272 z"
           id="path3702" />
        <path
           style="fill:#ffffff;fill-opacity:1;stroke-width:0.272252"
           d="m 116.79061,29.327453 c 3.64415,0.111587 8.29753,-8.22394 3.5735,-6.745293 -2.77402,1.766007 -8.21479,4.551938 -5.65481,8.205432 0.79219,-0.343788 1.39377,-0.963697 2.08131,-1.460139 z"
           id="path3700" />
        <path
           style="fill:#ffffff;fill-opacity:1;stroke-width:0.272252"
           d="m 23.762148,31.339261 c 1.660945,-2.243846 10.339231,-4.636541 5.718654,-7.596062 -2.965087,1.570772 -10.725039,5.596788 -6.510046,8.604669 z"
           id="path3698" />
        <path
           style="fill:#ffffff;fill-opacity:1;stroke-width:0.272252"
           d="m 128.46414,35.801932 c 2.58024,-3.007671 -0.81827,-13.47254 -3.69508,-7.733082 0.58851,2.83305 -2.00893,11.73907 3.69508,7.733082 z"
           id="path3696" />
        <path
           style="fill:#ffffff;fill-opacity:1;stroke-width:0.272252"
           d="m 119.61214,33.463876 c 4.27283,-0.113753 3.56446,-8.662761 -0.51727,-3.627986 -4.87627,0.247754 -7.85925,11.881216 -1.90741,5.403715 0.7911,-0.564109 1.38126,-1.609474 2.42468,-1.775729 z"
           id="path3694" />
        <path
           style="fill:#ffffff;fill-opacity:1;stroke-width:0.272252"
           d="m 18.344467,36.875668 c 2.328232,-2.997453 1.857869,-15.920272 -3.280176,-9.318796 0.238856,2.466745 -1.475828,11.157364 3.280176,9.318796 z"
           id="path3692" />
        <path
           style="fill:#ffffff;fill-opacity:1;stroke-width:0.272252"
           d="m 23.12167,37.252426 c 2.006608,-1.993767 10.246802,-5.255974 6.691192,-7.541322 -1.494551,1.678034 -11.172053,4.956679 -6.691192,7.541322 z"
           id="path3690" />
        <path
           style="fill:#ffffff;fill-opacity:1;stroke-width:0.272252"
           d="m 134.10684,39.059411 c 0.5091,-5.621219 4.77503,-16.281943 -1.89619,-18.556805 -4.90944,3.789462 0.12268,11.847349 -0.82288,17.364447 0.0101,2.337108 1.26707,3.54889 2.71908,1.192349 z"
           id="path3688" />
        <path
           style="fill:#ffffff;fill-opacity:1;stroke-width:0.272252"
           d="m 118.2605,44.202287 c 4.58465,-0.918154 6.00687,-14.00969 0.12227,-7.546505 -4.97316,-0.582362 -7.09357,9.804495 -1.53658,4.413587 2.82618,-2.304521 5.62906,-0.402515 1.29346,1.389498 -2.82805,1.279411 -4.27175,3.249398 0.12086,1.74342 z"
           id="path3686" />
        <path
           style="fill:#ffffff;fill-opacity:1;stroke-width:0.272252"
           d="m 24.370189,42.570351 c 3.124217,-0.592035 10.196812,-7.254368 4.922228,-7.316672 -1.478256,1.134568 -11.846231,5.875505 -4.922228,7.316672 z"
           id="path3684" />
        <path
           style="fill:#ffffff;fill-opacity:1;stroke-width:0.272252"
           d="M 78.627349,11.777749 C 70.516174,9.649747 90.210425,7.5748212 85.029164,12.13461 82.892819,12.661385 80.768577,11.664703 78.627349,11.777751 Z"
           id="path3682" />
        <path
           style="fill:#ffffff;fill-opacity:1;stroke-width:0.272252"
           d="m 100.30334,20.303411 c -8.111179,-2.128002 11.58307,-4.202927 6.40181,0.356861 -2.13634,0.526775 -4.26059,-0.469907 -6.40181,-0.356859 z"
           id="path3682-3" />
        <path
           style="fill:#ffffff;fill-opacity:1;stroke-width:0.272252"
           d="m 40.776131,11.799699 c 2.286139,-4.6016097 11.637436,-0.632537 16.481195,-2.054746 3.557756,-0.100411 11.289653,-1.063737 12.096695,1.803696 -5.90803,2.601984 -12.640953,-0.136486 -18.90077,0.719298 -3.22906,-0.04296 -6.468577,-0.05827 -9.67712,-0.46824 z"
           id="path3680" />
        <path
           style="fill:#ffffff;fill-opacity:1;stroke-width:0.272252"
           d="m 88.595706,20.147129 c -2.926816,1.239854 -8.675082,-2.761318 -2.495112,-2.462938 2.517763,-1.248383 12.460099,1.171521 5.981952,2.727634 -1.162012,-0.0918 -2.324544,-0.176752 -3.48684,-0.26471 z"
           id="path3678" />
        <path
           style="fill:#ffffff;fill-opacity:1;stroke-width:0.272252"
           d="m 39.100882,19.648016 c 4.683988,-3.385849 11.020006,-1.679802 16.419671,-2.636173 7.353731,-0.16485 14.750163,-0.293684 22.054336,0.724406 -0.644224,5.470629 -10.095621,0.948872 -14.244727,2.31476 -8.001977,-0.120079 -16.005693,-0.01647 -24.007408,-0.162945 l -0.221959,-0.240128 z"
           id="path3676" />
        <path
           style="fill:#ffffff;fill-opacity:1;stroke-width:0.272252"
           d="m 44.244497,29.090548 c -7.19536,-0.731688 0.942862,-3.929386 3.988394,-2.529 7.124933,1.931848 -1.776642,3.522372 -3.988394,2.529 z"
           id="path3674" />
        <path
           style="fill:#ffffff;fill-opacity:1;stroke-width:0.272252"
           d="m 97.692813,30.414644 c -3.72499,-5.578599 13.416597,-0.755695 3.587707,0.350052 -1.20217,-0.0037 -2.414417,-0.06555 -3.587707,-0.350052 z"
           id="path3672" />
        <path
           style="fill:#ffffff;fill-opacity:1;stroke-width:0.272252"
           d="m 79.891549,30.359854 c -2.899799,0.946485 -11.16767,-2.384181 -3.779073,-2.645728 4.729595,0.385349 11.131917,-2.532021 14.585826,1.906634 -3.280485,2.04786 -7.241422,0.575539 -10.806753,0.739094 z"
           id="path3670" />
        <path
           style="fill:#ffffff;fill-opacity:1;stroke-width:0.272252"
           d="m 98.426253,12.574964 c -2.899799,0.946485 -11.16767,-2.384181 -3.779073,-2.6457275 4.729595,0.3853485 11.13192,-2.532021 14.58583,1.9066335 -3.28049,2.04786 -7.24143,0.575539 -10.806757,0.739094 z"
           id="path3670-6" />
        <path
           style="fill:#ffffff;fill-opacity:1;stroke-width:0.272252"
           d="m 60.734886,29.922204 c -2.844544,1.153785 -8.874048,-3.07453 -2.699981,-2.635216 2.771511,-1.601805 12.153788,1.818879 4.918946,2.891064 -0.739287,-0.08856 -1.47923,-0.171206 -2.218965,-0.255841 z"
           id="path3668" />
        <path
           style="fill:#ffffff;fill-opacity:1;stroke-width:0.272252"
           d="m 94.766813,37.730542 c -3.327723,-4.014401 12.938697,-3.420744 8.013907,-0.01964 -2.66255,0.274327 -5.348487,0.224644 -8.013907,0.01964 z"
           id="path3666" />
        <path
           style="fill:#ffffff;fill-opacity:1;stroke-width:0.272252"
           d="m 75.118619,37.585045 c -2.630304,1.088976 -10.013173,-2.671555 -3.387629,-2.57235 5.134165,0.860293 13.208479,-1.609728 16.449776,1.923587 -3.49205,3.068048 -8.951645,-0.03984 -13.062147,0.648763 z"
           id="path3664" />
        <path
           style="fill:#ffffff;fill-opacity:1;stroke-width:0.272252"
           d="m 51.159078,37.406154 c -2.720656,0.588887 -13.473439,-0.867311 -5.539349,-2.281951 4.987831,0.148877 14.873991,-2.423159 16.76027,1.750243 -3.17189,2.376662 -7.635179,-0.256824 -11.220921,0.531708 z"
           id="path3662" />
        <path
           style="fill:#ffffff;fill-opacity:1;stroke-width:0.272252"
           d="m 29.374725,44.236844 c 4.612672,-1.192528 -0.156301,-5.308085 -2.239503,-1.316204 -4.268195,2.061009 0.529108,1.575897 2.239503,1.316204 z"
           id="path3658" />
        <path
           style="fill:#ffffff;fill-opacity:1;stroke-width:0.417587"
           d="M 81.396861,84.321597 C 98.501423,81.103825 111.33557,65.392538 113.89985,48.595146 109.435,45.944773 95.554053,44.593997 96.504563,46.606927 c 4.502027,1.515148 13.184857,12.648841 2.97337,6.716585 -3.56714,-2.995051 -17.824719,-10.904857 -9.050918,-1.38766 3.099498,3.182701 10.715275,12.833609 7.475328,14.001303 -5.53304,-3.320221 -12.172398,-16.818337 -15.82213,-15.203387 0.471972,7.141951 9.85694,19.274015 4.454824,23.440633 -4.36444,-3.240974 -3.931499,-17.88457 -8.133532,-15.959798 -1.446394,5.539987 0.387012,19.050908 -4.162199,19.373956 C 71.781961,71.558683 77.169111,59.022257 74.518211,57.354338 70.7298,62.30441 65.201706,76.5697 60.738711,74.649943 62.195033,68.435032 72.081888,58.86392 70.181969,55.778894 64.053292,59.474155 59.067891,66.249178 51.708383,67.244519 59.186382,59.421032 68.517274,53.759623 76.611261,46.642562 c -10.83668,3.627981 -21.050339,9.242311 -32.400917,11.232151 7.983808,-6.69564 19.008236,-7.546915 27.777183,-12.674479 -8.506795,-1.531542 -17.940812,0.952404 -26.811615,0.582361 -5.719147,-0.30314 -14.424544,1.132126 -8.231237,8.037178 6.625463,14.85474 18.723862,30.459306 36.432146,30.931786 2.677865,0.148628 5.376052,0.0319 8.020099,-0.429947 z"
           id="path3656" />
      </g>
    </g>
  </g>
</svg>
